#N canvas 222 107 957 641 10;
#X obj 28 4 s bela_setDigital;
#X obj 28 -53 loadbang;
#X obj 75 262 print digi11;
#X obj 193 271 r bela_digitalIn12;
#X obj 195 301 print digi12;
#X obj 323 271 r bela_digitalIn13;
#X obj 325 301 print digi13;
#X obj 456 265 r bela_digitalIn14;
#X obj 458 295 print digi14;
#X obj 71 405 r bela_digitalIn15;
#X obj 191 444 r bela_digitalIn16;
#X obj 321 444 r bela_digitalIn17;
#X obj 454 438 r bela_digitalIn18;
#X obj 73 435 print digi15;
#X obj 193 474 print digi16;
#X obj 323 474 print digi17;
#X obj 496 487 print digi18;
#X obj 116 159 tgl 15 0 empty empty empty 17 7 0 10 -262144 -1 -1 0
1;
#X obj 230 165 tgl 15 0 empty empty empty 17 7 0 10 -262144 -1 -1 0
1;
#X obj 372 181 tgl 15 0 empty empty empty 17 7 0 10 -262144 -1 -1 0
1;
#X obj 490 198 tgl 15 0 empty empty empty 17 7 0 10 -262144 -1 -1 0
1;
#X obj 34 391 tgl 15 0 empty empty empty 17 7 0 10 -262144 -1 -1 0
1;
#X obj 243 409 tgl 15 0 empty empty empty 17 7 0 10 -262144 -1 -1 0
1;
#X obj 344 419 tgl 15 0 empty empty empty 17 7 0 10 -262144 -1 -1 0
1;
#X obj 484 409 tgl 15 0 empty empty empty 17 7 0 10 -262144 -1 -1 0
1;
#X obj 55 788 *~ 0.5;
#X obj 34 821 dac~;
#X obj 143 705 lop~ 4000;
#X obj 693 483 readsf~;
#X msg 694 450 open celloLoop.wav \, 1;
#X obj 666 626 dac~;
#X obj 749 516 lop~ 2000;
#X obj 765 479 spigot;
#X obj 759 554 *~ 0.2;
#X obj 850 262 r bela_digitalIn18;
#X obj 823 301 tgl 15 0 empty empty empty 17 7 0 10 -262144 -1 -1 0
1;
#X obj 850 331 sel 1 0;
#X obj 873 355 t 0 0;
#X obj 853 519 bng 15 250 50 0 empty empty empty 17 7 0 10 -262144
-1 -1;
#X obj 839 475 tgl 15 0 empty empty empty 17 7 0 10 -262144 -1 -1 0
1;
#X obj 831 356 t b b;
#X msg 846 401 1;
#X obj 388 734 delwrite~ quickD 750;
#X obj 104 673 delread~ quickD 750;
#X text 29 32 enable bela audio expander and set dacs to 1 2 3 (this
used more ins and outs once upon a time);
#X obj 69 491 cellounit 5;
#X obj 71 320 cellounit 1;
#X obj 190 357 cellounit 2;
#X obj 320 357 cellounit 3;
#X obj 453 351 cellounit 4;
#X obj 185 510 cellounit 6;
#X obj 329 524 cellounit 7;
#X obj 451 524 cellounit 8;
#X text 572 65 this is lazy - send paths or an argument to abstraction
;
#X obj 879 294 print digi18;
#X obj 639 501 adc~;
#X obj 673 518 osc~ 440;
#X obj 673 539 *~ 0.1;
#X msg 26 -24 in 11 \, in 12 \, in 13 \, in 14 \, in 15 \, in 16 \,
in 17 \, in 18 \, in 19;
#X obj 73 232 r bela_digitalIn11;
#X obj 26 625 *~;
#X obj 68 628 sig~ 1;
#X connect 1 0 58 0;
#X connect 3 0 4 0;
#X connect 3 0 47 0;
#X connect 5 0 6 0;
#X connect 5 0 48 0;
#X connect 7 0 8 0;
#X connect 7 0 49 0;
#X connect 9 0 13 0;
#X connect 9 0 45 0;
#X connect 10 0 14 0;
#X connect 10 0 50 0;
#X connect 11 0 15 0;
#X connect 11 0 51 0;
#X connect 12 0 16 0;
#X connect 17 0 46 0;
#X connect 18 0 47 0;
#X connect 19 0 48 0;
#X connect 20 0 49 0;
#X connect 21 0 45 0;
#X connect 22 0 50 0;
#X connect 23 0 51 0;
#X connect 24 0 52 0;
#X connect 25 0 26 1;
#X connect 25 0 27 0;
#X connect 27 0 42 0;
#X connect 28 0 31 0;
#X connect 28 1 32 0;
#X connect 28 1 38 0;
#X connect 29 0 28 0;
#X connect 31 0 33 0;
#X connect 32 0 29 0;
#X connect 34 0 36 0;
#X connect 34 0 54 0;
#X connect 35 0 36 0;
#X connect 36 0 40 0;
#X connect 36 1 37 0;
#X connect 37 0 28 0;
#X connect 37 1 39 0;
#X connect 39 0 32 1;
#X connect 40 0 29 0;
#X connect 40 1 41 0;
#X connect 41 0 39 0;
#X connect 43 0 25 0;
#X connect 45 0 60 0;
#X connect 45 1 42 0;
#X connect 46 0 60 0;
#X connect 46 1 42 0;
#X connect 47 0 60 0;
#X connect 47 1 42 0;
#X connect 48 0 60 0;
#X connect 48 1 42 0;
#X connect 49 0 60 0;
#X connect 49 1 42 0;
#X connect 50 0 60 0;
#X connect 50 1 42 0;
#X connect 51 0 60 0;
#X connect 51 1 42 0;
#X connect 52 0 60 0;
#X connect 52 1 42 0;
#X connect 56 0 57 0;
#X connect 58 0 0 0;
#X connect 59 0 2 0;
#X connect 59 0 46 0;
#X connect 60 0 26 0;
#X connect 61 0 60 1;
