#N canvas 572 67 539 702 10;
#X obj 76 414 readsf~;
#X msg 205 65 1;
#X obj 205 6 loadbang;
#X obj 76 385 spigot;
#X obj 144 175 tgl 15 0 empty empty empty 17 7 0 10 -262144 -1 -1 1
1;
#X obj 207 31 t b b;
#X obj 130 77 t 0 b;
#X obj 75 487 dac~;
#X obj 54 -133 snapshot~;
#X obj 54 -164 metro 100;
#X obj 53 106 tgl 15 0 empty empty empty 17 7 0 10 -262144 -1 -1 1
1;
#X obj 56 -217 loadbang;
#X obj 216 -163 inlet~;
#X obj 74 442 *~;
#X obj 80 26 > 0.5;
#X obj 51 236 \$1;
#X obj 92 180 line~;
#X msg 76 138 \$1 10;
#X msg 66 316 open \$1-cello-1.wav \, 1;
#X obj 136 -21 inlet;
#X obj 296 -1 tgl 15 0 empty empty empty 17 7 0 10 -262144 -1 -1 0
1;
#X floatatom 174 141 5 0 0 0 - - -, f 5;
#X obj 174 160 print;
#X obj 132 483 outlet~;
#X obj 184 417 *~ 3;
#X obj 139 45 sel 1;
#X obj 340 436 writesf~;
#X obj 389 81 inlet;
#X msg 357 379 stop;
#X obj 319 192 &&;
#X obj 321 284 sel 1 0;
#X obj 321 252 change;
#X obj 319 182 f;
#X obj 344 136 t b f;
#X msg 321 343 open \$1-cello-1.wav \, start;
#X obj 357 49 tgl 15 0 empty empty empty 17 7 0 10 -262144 -1 -1 0
1;
#X obj 319 222 tgl 15 0 empty empty empty 17 7 0 10 -262144 -1 -1 0
1;
#X obj 407 389 adc~ 1;
#X obj 322 313 \$1;
#X connect 0 0 13 0;
#X connect 0 1 5 0;
#X connect 1 0 4 0;
#X connect 2 0 5 0;
#X connect 3 0 0 0;
#X connect 4 0 3 1;
#X connect 5 0 1 0;
#X connect 6 0 4 0;
#X connect 6 1 15 0;
#X connect 8 0 14 0;
#X connect 9 0 8 0;
#X connect 10 0 9 0;
#X connect 11 0 10 0;
#X connect 12 0 8 0;
#X connect 13 0 7 0;
#X connect 13 0 24 0;
#X connect 15 0 18 0;
#X connect 16 0 13 1;
#X connect 17 0 16 0;
#X connect 18 0 3 0;
#X connect 19 0 17 0;
#X connect 19 0 25 0;
#X connect 19 0 32 0;
#X connect 20 0 25 0;
#X connect 20 0 32 0;
#X connect 21 0 22 0;
#X connect 24 0 23 0;
#X connect 25 1 6 0;
#X connect 27 0 33 0;
#X connect 28 0 26 0;
#X connect 29 0 36 0;
#X connect 30 0 38 0;
#X connect 30 1 28 0;
#X connect 31 0 30 0;
#X connect 32 0 29 0;
#X connect 33 0 32 0;
#X connect 33 1 29 1;
#X connect 34 0 26 0;
#X connect 35 0 33 0;
#X connect 36 0 31 0;
#X connect 37 0 26 0;
#X connect 38 0 34 0;
